<svg width="5" height="8" viewBox="0 0 5 8" fill="none" xmlns="http://www.w3.org/2000/svg">
<path d="M4.54688 0.648438C4.54688 0.578126 4.51563 0.515625 4.46875 0.468751L4.07812 0.0781251C4.03125 0.0312507 3.96094 0 3.89844 0C3.83594 0 3.76563 0.0312507 3.71875 0.0781251L0.078125 3.71875C0.03125 3.76563 0 3.83594 0 3.89844C0 3.96094 0.03125 4.03125 0.078125 4.07813L3.71875 7.71875C3.76563 7.76563 3.83594 7.79688 3.89844 7.79688C3.96094 7.79688 4.03125 7.76563 4.07812 7.71875L4.46875 7.32813C4.51563 7.28125 4.54688 7.21094 4.54688 7.14844C4.54688 7.08594 4.51563 7.01563 4.46875 6.96875L1.39844 3.89844L4.46875 0.828126C4.51563 0.78125 4.54688 0.710938 4.54688 0.648438Z" fill="white"/>
</svg>
