<svg width="9" height="13" viewBox="0 0 9 13" fill="none" xmlns="http://www.w3.org/2000/svg">
<path d="M6.42857 4.28572C6.42857 5.46596 5.46596 6.42857 4.28571 6.42857C3.10547 6.42857 2.14286 5.46596 2.14286 4.28572C2.14286 3.10547 3.10547 2.14286 4.28571 2.14286C5.46596 2.14286 6.42857 3.10547 6.42857 4.28572ZM8.57143 4.28572C8.57143 1.91685 6.65458 0 4.28571 0C1.91685 0 0 1.91685 0 4.28572C0 4.79632 0.0585938 5.32366 0.276228 5.78404L3.33147 12.2628C3.49888 12.6311 3.88393 12.8571 4.28571 12.8571C4.6875 12.8571 5.07255 12.6311 5.24833 12.2628L8.2952 5.78404C8.51283 5.32366 8.57143 4.79632 8.57143 4.28572Z" fill="#2C4058"/>
</svg>
