<svg width="0" height="0" class="hidden">
  <symbol fill="none" xmlns="http://www.w3.org/2000/svg" viewBox="0 0 16 14" id="facebook-icon">
    <path
      d="M14.3438 3.75C14.3646 3.83333 14.375 3.96875 14.375 4.15625C14.375 5.26042 14.1667 6.36458 13.75 7.46875C13.3333 8.55208 12.7396 9.55208 11.9688 10.4688C11.2188 11.3646 10.2396 12.0938 9.03125 12.6562C7.82292 13.2188 6.48958 13.5 5.03125 13.5C3.19792 13.5 1.52083 13.0104 0 12.0312C0.229167 12.0521 0.489583 12.0625 0.78125 12.0625C2.30208 12.0625 3.66667 11.5938 4.875 10.6562C4.14583 10.6562 3.5 10.4479 2.9375 10.0312C2.39583 9.59375 2.02083 9.05208 1.8125 8.40625C2.02083 8.42708 2.21875 8.4375 2.40625 8.4375C2.69792 8.4375 2.98958 8.40625 3.28125 8.34375C2.78125 8.23958 2.33333 8.03125 1.9375 7.71875C1.54167 7.40625 1.22917 7.03125 1 6.59375C0.770833 6.13542 0.65625 5.64583 0.65625 5.125V5.0625C1.11458 5.33333 1.60417 5.47917 2.125 5.5C1.14583 4.83333 0.65625 3.91667 0.65625 2.75C0.65625 2.16667 0.8125 1.61458 1.125 1.09375C1.9375 2.11458 2.92708 2.92708 4.09375 3.53125C5.28125 4.13542 6.54167 4.46875 7.875 4.53125C7.83333 4.28125 7.8125 4.03125 7.8125 3.78125C7.8125 2.88542 8.125 2.11458 8.75 1.46875C9.39583 0.822917 10.1667 0.5 11.0625 0.5C12.0208 0.5 12.8229 0.84375 13.4688 1.53125C14.2188 1.38542 14.9167 1.125 15.5625 0.75C15.3125 1.52083 14.8333 2.125 14.125 2.5625C14.75 2.47917 15.375 2.30208 16 2.03125C15.5417 2.69792 14.9896 3.27083 14.3438 3.75Z"
      fill="white"></path>
  </symbol>

  <symbol fill="none" xmlns="http://www.w3.org/2000/svg" viewBox="0 0 10 16" id="instagram-icon">
    <path
      d="M8.71875 9H6.375V16H3.25V9H0.71875V6.09375H3.25V3.90625C3.25 3.07292 3.40625 2.36458 3.71875 1.78125C4.03125 1.19792 4.46875 0.760417 5.03125 0.46875C5.61458 0.15625 6.28125 0 7.03125 0C7.36458 0 7.71875 0.0208333 8.09375 0.0625C8.46875 0.0833333 8.76042 0.114583 8.96875 0.15625L9.28125 0.1875V2.65625H8.03125C7.44792 2.65625 7.02083 2.8125 6.75 3.125C6.5 3.41667 6.375 3.78125 6.375 4.21875V6.09375H9.15625L8.71875 9Z"
      fill="white"></path>
  </symbol>

  <symbol fill="none" xmlns="http://www.w3.org/2000/svg" viewBox="0 0 15 14" id="twitter-icon">
    <path
      d="M4.46875 4.46875C5.17708 3.76042 6.03125 3.40625 7.03125 3.40625C8.03125 3.40625 8.875 3.76042 9.5625 4.46875C10.2708 5.15625 10.625 6 10.625 7C10.625 8 10.2708 8.85417 9.5625 9.5625C8.875 10.25 8.03125 10.5938 7.03125 10.5938C6.03125 10.5938 5.17708 10.25 4.46875 9.5625C3.78125 8.85417 3.4375 8 3.4375 7C3.4375 6 3.78125 5.15625 4.46875 4.46875ZM5.375 8.65625C5.83333 9.11458 6.38542 9.34375 7.03125 9.34375C7.67708 9.34375 8.22917 9.11458 8.6875 8.65625C9.14583 8.19792 9.375 7.64583 9.375 7C9.375 6.35417 9.14583 5.80208 8.6875 5.34375C8.22917 4.88542 7.67708 4.65625 7.03125 4.65625C6.38542 4.65625 5.83333 4.88542 5.375 5.34375C4.91667 5.80208 4.6875 6.35417 4.6875 7C4.6875 7.64583 4.91667 8.19792 5.375 8.65625ZM11.3438 2.6875C11.5104 2.83333 11.5938 3.02083 11.5938 3.25C11.5938 3.47917 11.5104 3.67708 11.3438 3.84375C11.1979 4.01042 11.0104 4.09375 10.7812 4.09375C10.5521 4.09375 10.3542 4.01042 10.1875 3.84375C10.0208 3.67708 9.9375 3.47917 9.9375 3.25C9.9375 3.02083 10.0208 2.83333 10.1875 2.6875C10.3542 2.52083 10.5521 2.4375 10.7812 2.4375C11.0104 2.4375 11.1979 2.52083 11.3438 2.6875ZM14 4.125C14.0208 4.6875 14.0312 5.64583 14.0312 7C14.0312 8.35417 14.0208 9.3125 14 9.875C13.9375 11.1458 13.5521 12.1354 12.8438 12.8438C12.1562 13.5312 11.1771 13.8958 9.90625 13.9375C9.34375 13.9792 8.38542 14 7.03125 14C5.67708 14 4.71875 13.9792 4.15625 13.9375C2.88542 13.875 1.90625 13.5 1.21875 12.8125C0.947917 12.5625 0.729167 12.2708 0.5625 11.9375C0.395833 11.6042 0.270833 11.2812 0.1875 10.9688C0.125 10.6562 0.09375 10.2917 0.09375 9.875C0.0520833 9.3125 0.03125 8.35417 0.03125 7C0.03125 5.64583 0.0520833 4.67708 0.09375 4.09375C0.15625 2.84375 0.53125 1.875 1.21875 1.1875C1.90625 0.479167 2.88542 0.09375 4.15625 0.03125C4.71875 0.0104167 5.67708 0 7.03125 0C8.38542 0 9.34375 0.0104167 9.90625 0.03125C11.1771 0.09375 12.1562 0.479167 12.8438 1.1875C13.5521 1.875 13.9375 2.85417 14 4.125ZM12.5 11.125C12.5625 10.9583 12.6146 10.75 12.6562 10.5C12.6979 10.2292 12.7292 9.91667 12.75 9.5625C12.7708 9.1875 12.7812 8.88542 12.7812 8.65625C12.7812 8.42708 12.7812 8.10417 12.7812 7.6875C12.7812 7.27083 12.7812 7.04167 12.7812 7C12.7812 6.9375 12.7812 6.70833 12.7812 6.3125C12.7812 5.89583 12.7812 5.57292 12.7812 5.34375C12.7812 5.11458 12.7708 4.82292 12.75 4.46875C12.7292 4.09375 12.6979 3.78125 12.6562 3.53125C12.6146 3.26042 12.5625 3.04167 12.5 2.875C12.25 2.22917 11.8021 1.78125 11.1562 1.53125C10.9896 1.46875 10.7708 1.41667 10.5 1.375C10.25 1.33333 9.9375 1.30208 9.5625 1.28125C9.20833 1.26042 8.91667 1.25 8.6875 1.25C8.47917 1.25 8.15625 1.25 7.71875 1.25C7.30208 1.25 7.07292 1.25 7.03125 1.25C6.98958 1.25 6.76042 1.25 6.34375 1.25C5.92708 1.25 5.60417 1.25 5.375 1.25C5.14583 1.25 4.84375 1.26042 4.46875 1.28125C4.11458 1.30208 3.80208 1.33333 3.53125 1.375C3.28125 1.41667 3.07292 1.46875 2.90625 1.53125C2.26042 1.78125 1.8125 2.22917 1.5625 2.875C1.5 3.04167 1.44792 3.26042 1.40625 3.53125C1.36458 3.78125 1.33333 4.09375 1.3125 4.46875C1.29167 4.82292 1.28125 5.11458 1.28125 5.34375C1.28125 5.55208 1.28125 5.875 1.28125 6.3125C1.28125 6.72917 1.28125 6.95833 1.28125 7C1.28125 7.08333 1.28125 7.28125 1.28125 7.59375C1.28125 7.88542 1.28125 8.13542 1.28125 8.34375C1.28125 8.53125 1.28125 8.78125 1.28125 9.09375C1.30208 9.40625 1.32292 9.67708 1.34375 9.90625C1.36458 10.1146 1.39583 10.3333 1.4375 10.5625C1.47917 10.7917 1.52083 10.9792 1.5625 11.125C1.83333 11.7708 2.28125 12.2188 2.90625 12.4688C3.07292 12.5312 3.28125 12.5833 3.53125 12.625C3.80208 12.6667 4.11458 12.6979 4.46875 12.7188C4.84375 12.7396 5.13542 12.75 5.34375 12.75C5.57292 12.75 5.89583 12.75 6.3125 12.75C6.75 12.75 6.98958 12.75 7.03125 12.75C7.09375 12.75 7.32292 12.75 7.71875 12.75C8.13542 12.75 8.45833 12.75 8.6875 12.75C8.91667 12.75 9.20833 12.7396 9.5625 12.7188C9.9375 12.6979 10.25 12.6667 10.5 12.625C10.7708 12.5833 10.9896 12.5312 11.1562 12.4688C11.8021 12.1979 12.25 11.75 12.5 11.125Z"
      fill="white"></path>
  </symbol>

  <symbol xmlns="http://www.w3.org/2000/svg" viewBox="0 0 5 8" id="arrow-left">
    <path
      d="M4.54688 0.648438C4.54688 0.578126 4.51563 0.515625 4.46875 0.468751L4.07812 0.0781251C4.03125 0.0312507 3.96094 0 3.89844 0C3.83594 0 3.76563 0.0312507 3.71875 0.0781251L0.078125 3.71875C0.03125 3.76563 0 3.83594 0 3.89844C0 3.96094 0.03125 4.03125 0.078125 4.07813L3.71875 7.71875C3.76563 7.76563 3.83594 7.79688 3.89844 7.79688C3.96094 7.79688 4.03125 7.76563 4.07812 7.71875L4.46875 7.32813C4.51563 7.28125 4.54688 7.21094 4.54688 7.14844C4.54688 7.08594 4.51563 7.01563 4.46875 6.96875L1.39844 3.89844L4.46875 0.828126C4.51563 0.78125 4.54688 0.710938 4.54688 0.648438Z"></path>
  </symbol>

  <symbol xmlns="http://www.w3.org/2000/svg" viewBox="0 0 5 9" id="arrow-right">
    <path
      d="M4.64844 4.5C4.64844 4.4375 4.61719 4.36719 4.57031 4.32031L0.929688 0.679687C0.882813 0.632812 0.8125 0.601562 0.75 0.601562C0.6875 0.601562 0.617188 0.632812 0.570313 0.679687L0.179688 1.07031C0.132813 1.11719 0.101563 1.1875 0.101563 1.25C0.101563 1.3125 0.132813 1.38281 0.179688 1.42969L3.25 4.5L0.179688 7.57031C0.132813 7.61719 0.101563 7.6875 0.101563 7.75C0.101563 7.82031 0.132813 7.88281 0.179688 7.92969L0.570313 8.32031C0.617188 8.36719 0.6875 8.39844 0.75 8.39844C0.8125 8.39844 0.882813 8.36719 0.929688 8.32031L4.57031 4.67969C4.61719 4.63281 4.64844 4.5625 4.64844 4.5Z"></path>
  </symbol>

  <symbol xmlns="http://www.w3.org/2000/svg" viewBox="0 0 16 16"
    id="time">
    <path
      d="M9 4.17857C9 3.99777 8.85938 3.85715 8.67857 3.85715H8.03572C7.85491 3.85715 7.71429 3.99777 7.71429 4.17857V7.71428H5.46429C5.28348 7.71428 5.14286 7.85492 5.14286 8.03572V8.67857C5.14286 8.85938 5.28348 9 5.46429 9H8.67857C8.85938 9 9 8.85938 9 8.67857V4.17857ZM13.1786 7.71428C13.1786 10.7277 10.7277 13.1786 7.71429 13.1786C4.70089 13.1786 2.25 10.7277 2.25 7.71428C2.25 4.70089 4.70089 2.25 7.71429 2.25C10.7277 2.25 13.1786 4.70089 13.1786 7.71428ZM15.4286 7.71428C15.4286 3.45535 11.9732 0 7.71429 0C3.45536 0 0 3.45535 0 7.71428C0 11.9732 3.45536 15.4286 7.71429 15.4286C11.9732 15.4286 15.4286 11.9732 15.4286 7.71428Z"></path>
  </symbol>

  <symbol xmlns="http://www.w3.org/2000/svg" viewBox="0 0 11 16"
    id="adress">
    <path
      d="M7.71429 5.14286C7.71429 6.55915 6.55915 7.71429 5.14286 7.71429C3.72656 7.71429 2.57143 6.55915 2.57143 5.14286C2.57143 3.72656 3.72656 2.57143 5.14286 2.57143C6.55915 2.57143 7.71429 3.72656 7.71429 5.14286ZM10.2857 5.14286C10.2857 2.30022 7.98549 0 5.14286 0C2.30022 0 0 2.30022 0 5.14286C0 5.75558 0.0703125 6.38839 0.331473 6.94085L3.99777 14.7154C4.19866 15.1574 4.66071 15.4286 5.14286 15.4286C5.625 15.4286 6.08705 15.1574 6.29799 14.7154L9.95424 6.94085C10.2154 6.38839 10.2857 5.75558 10.2857 5.14286Z"></path>
  </symbol>

  <symbol xmlns="http://www.w3.org/2000/svg" viewBox="0 0 15 15" id="tel">
    <path
      d="M14.1429 11.1696C14.1429 11.0993 14.1429 11.029 14.1127 10.9587C14.0424 10.7478 13.5502 10.5268 13.3493 10.4263C12.7768 10.1049 12.1942 9.79352 11.6317 9.46205C11.3705 9.30134 11.0491 9 10.7377 9C10.125 9 9.23103 10.8181 8.68862 10.8181C8.41741 10.8181 8.06585 10.567 7.82478 10.4263C5.99665 9.41183 4.73103 8.14621 3.71652 6.31808C3.57589 6.07701 3.32478 5.72545 3.32478 5.45424C3.32478 4.91183 5.14286 4.01786 5.14286 3.40513C5.14286 3.09375 4.84152 2.77232 4.6808 2.51116C4.34933 1.94866 4.03795 1.36607 3.71652 0.793526C3.61607 0.592633 3.39509 0.100445 3.18415 0.0301323C3.11384 -1.78814e-06 3.04353 0 2.97321 0C2.61161 0 1.90848 0.160713 1.57701 0.311382C1.08482 0.52232 0.763393 1.08482 0.512277 1.53683C0.190848 2.12946 0 2.73214 0 3.40513C0 4.33928 0.381696 5.18304 0.69308 6.03683C0.914063 6.64955 1.18527 7.24219 1.52679 7.79464C2.58147 9.50223 4.64062 11.5614 6.34821 12.6161C6.90067 12.9576 7.4933 13.2288 8.10603 13.4498C8.95982 13.7612 9.80357 14.1429 10.7377 14.1429C11.4107 14.1429 12.0134 13.952 12.606 13.6306C13.058 13.3795 13.6205 13.058 13.8315 12.5658C13.9821 12.2344 14.1429 11.5313 14.1429 11.1696Z"></path>
  </symbol>

  <symbol xmlns="http://www.w3.org/2000/svg" viewBox="0 0 16 13" id="mailto">
    <path
      d="M10.2757 7.07143L9.32143 9H6.10715L5.1529 7.07143H1.97879C1.99888 7.0212 2.00893 6.96094 2.02902 6.91071L4.15848 1.92857H11.2701L13.3996 6.91071C13.4196 6.96094 13.4297 7.0212 13.4498 7.07143H10.2757ZM15.4286 7.37277C15.4286 7.01116 15.3181 6.47879 15.1775 6.13728L12.7868 0.592636C12.6462 0.261162 12.2444 0 11.8929 0H3.53571C3.18415 0 2.78236 0.261162 2.64174 0.592636L0.251114 6.13728C0.110489 6.47879 0 7.01116 0 7.37277V12.2143C0 12.5658 0.29129 12.8571 0.642853 12.8571H14.7857C15.1373 12.8571 15.4286 12.5658 15.4286 12.2143V7.37277Z"></path>
  </symbol>
</svg>